<svg xmlns="http://www.w3.org/2000/svg" width="18" height="20" fill="none" xmlns:v="https://vecta.io/nano"><path fill-rule="evenodd" d="M8.989 0c2.402 0 4.387 1.922 4.631 4.381l.068.001c1.333 0 2.953.929 3.5 3.536l.725 5.894c.26 1.902-.065 3.428-.969 4.523C16.046 19.424 14.623 20 12.83 20H5.158c-1.969 0-3.342-.507-4.195-1.548s-1.144-2.611-.852-4.655l.713-5.816c.469-2.667 2.183-3.599 3.51-3.599A5.05 5.05 0 0 1 5.68 1.426C6.549.519 7.746 0 8.97 0h.019zm4.7 5.829H4.334c-.405 0-1.76.172-2.149 2.376l-.709 5.791c-.231 1.624-.052 2.8.531 3.511.576.703 1.607 1.044 3.151 1.044h7.672c.963 0 2.278-.202 3.072-1.165.631-.764.847-1.9.645-3.38l-.716-5.841c-.305-1.439-1.11-2.337-2.143-2.337zm-2.019 2.687c.38 0 .71.324.71.724s-.288.724-.668.724h-.042c-.38 0-.689-.324-.689-.724s.309-.724.689-.724zm-5.358 0c.38 0 .71.324.71.724s-.289.724-.669.724h-.041c-.38 0-.689-.324-.689-.724s.309-.724.689-.724zm2.675-7.069h-.014a3.23 3.23 0 0 0-2.319 1.004 3.54 3.54 0 0 0-.929 1.93h6.506c-.236-1.658-1.602-2.934-3.245-2.934z" fill="#3d639d"/></svg>