<svg xmlns="http://www.w3.org/2000/svg" width="24" height="24" fill="none" xmlns:v="https://vecta.io/nano"><path fill-rule="evenodd" d="M7.543 19.952c.714 0 1.295.58 1.295 1.294s-.581 1.295-1.295 1.295-1.294-.581-1.294-1.295.58-1.294 1.294-1.294zm11.28 0c.715 0 1.296.58 1.296 1.294s-.581 1.295-1.296 1.295-1.294-.581-1.294-1.295.58-1.294 1.294-1.294zM3.268 3.009l2.08.36c.335.059.59.337.619.677l.235 2.801h.874.423l1.604.001h.379l1.771.001h.33l1.241.001h.291l1.092.001h.255l.952.001h.221l.626.001h.196l.725.001h.167l.612.001h.14l.389.001h.12l.433.001h.097l.267.001h.081l.286.001h.063l.168.001h.05l.17.001h.036l.093.001h.026l.067.001.064.001.041.001.028.001c.573.082 1.063.373 1.397.821s.474.998.394 1.55l-.949 6.558c-.179 1.248-1.263 2.189-2.523 2.189H7.975c-1.317 0-2.432-1.028-2.539-2.343L4.52 4.748l-1.507-.26a.75.75 0 0 1-.612-.868.76.76 0 0 1 .867-.611zm3.607 5.338h-.547l.603 7.172a1.04 1.04 0 0 0 1.046.966h10.917c.521 0 .966-.388 1.04-.903l.95-6.559c.022-.156-.017-.312-.112-.438a.58.58 0 0 0-.388-.231l-.051.001-.109.001h-.075l-.566.001h-.149-1.332-.227l-1.52-.001h-.276l-.86-.001h-.296l-.911-.001h-.31l-.628-.001h-.317l-.958-.001h-.32l-.641-.001h-.319l-.635-.001h-.315l-.931-.001h-.304l-1.176-.001h-.282zm10.413 2.196a.75.75 0 1 1 0 1.5h-2.772a.75.75 0 1 1 0-1.5h2.772z" fill="#fff"/></svg>