<svg xmlns="http://www.w3.org/2000/svg" width="20" height="20" fill="none" xmlns:v="https://vecta.io/nano"><g clip-path="url(#A)"><path fill-rule="evenodd" d="M5.154 17.35c.714 0 1.295.594 1.295 1.324S5.868 20 5.154 20s-1.294-.595-1.294-1.325.58-1.324 1.294-1.324zm11.28 0c.715 0 1.296.594 1.296 1.324S17.149 20 16.434 20s-1.294-.595-1.294-1.325.58-1.324 1.294-1.324zM.878.01l2.08.368c.335.06.59.345.619.693l.235 2.867h.874.423l1.604.001h.379l1.771.001h.33 1.241.291 1.092.255l.952.001h.221.626.196.725.167l.612.001h.14.389.12l.433.001h.097.267.081l.286.001h.063l.168.001h.05l.17.001h.036l.093.001h.026l.067.001.064.001.041.001.028.001a2.08 2.08 0 0 1 1.397.841c.334.458.474 1.021.394 1.586l-.949 6.712c-.179 1.277-1.263 2.241-2.523 2.241H5.585c-1.317 0-2.432-1.052-2.539-2.398L2.13 1.79.623 1.523C.214 1.45-.059 1.054.011.635A.76.76 0 0 1 .878.01zm3.607 5.464h-.547l.603 7.34c.044.565.495.989 1.046.989h10.917c.521 0 .966-.397 1.04-.924l.95-6.713a.61.61 0 0 0-.112-.448.58.58 0 0 0-.388-.236l-.051.001-.109.001h-.075l-.567.001h-.149-1.332-.227l-1.52-.001h-.276l-.86-.001h-.296l-.911-.001h-.31l-.628-.001h-.317l-.958-.001h-.32-.641-.319l-.635-.001h-.315l-.931-.001h-.304l-1.176-.001h-.282zm10.413 2.248a.76.76 0 0 1 .75.768.76.76 0 0 1-.75.768h-2.772c-.415 0-.75-.344-.75-.768s.335-.768.75-.768h2.772z" fill="#fff"/></g><defs><clipPath id="A"><path fill="#fff" d="M0 0h20v20H0z"/></clipPath></defs></svg>