<svg width="96" height="23" viewBox="0 0 96 23" fill="none" xmlns="http://www.w3.org/2000/svg">
<path d="M0.721591 18V0.545454H7.40341C8.66477 0.545454 9.71307 0.744318 10.5483 1.14204C11.3892 1.53409 12.017 2.07102 12.4318 2.75284C12.8523 3.43466 13.0625 4.20739 13.0625 5.07102C13.0625 5.78125 12.9261 6.3892 12.6534 6.89489C12.3807 7.39489 12.0142 7.80114 11.554 8.11364C11.0938 8.42614 10.5795 8.65057 10.0114 8.78693V8.95739C10.6307 8.99148 11.2244 9.18182 11.7926 9.52841C12.3665 9.86932 12.8352 10.3523 13.1989 10.9773C13.5625 11.6023 13.7443 12.358 13.7443 13.2443C13.7443 14.1477 13.5256 14.9602 13.0881 15.6818C12.6506 16.3977 11.9915 16.9631 11.1108 17.3778C10.2301 17.7926 9.12216 18 7.78693 18H0.721591ZM3.88352 15.358H7.28409C8.43182 15.358 9.25852 15.1392 9.7642 14.7017C10.2756 14.2585 10.5312 13.6903 10.5312 12.9972C10.5312 12.4801 10.4034 12.0142 10.1477 11.5994C9.89205 11.179 9.52841 10.8494 9.05682 10.6108C8.58523 10.3665 8.02273 10.2443 7.36932 10.2443H3.88352V15.358ZM3.88352 7.96875H7.01136C7.55682 7.96875 8.0483 7.86932 8.4858 7.67045C8.9233 7.46591 9.26705 7.17898 9.51705 6.80966C9.77273 6.43466 9.90057 5.99148 9.90057 5.48011C9.90057 4.80398 9.66193 4.24716 9.18466 3.80966C8.71307 3.37216 8.01136 3.15341 7.07955 3.15341H3.88352V7.96875ZM22.1541 18.2557C20.8416 18.2557 19.7081 17.983 18.7536 17.4375C17.8047 16.8864 17.0746 16.108 16.5632 15.1023C16.0518 14.0909 15.7962 12.9006 15.7962 11.5312C15.7962 10.1847 16.0518 9.00284 16.5632 7.9858C17.0803 6.96307 17.8018 6.16761 18.728 5.59943C19.6541 5.02557 20.7422 4.73864 21.9922 4.73864C22.799 4.73864 23.5604 4.86932 24.2763 5.13068C24.9979 5.38636 25.6342 5.78409 26.1854 6.32386C26.7422 6.86364 27.1797 7.55114 27.4979 8.38636C27.8161 9.21591 27.9751 10.2045 27.9751 11.3523V12.2983H17.245V10.2188H25.0178C25.0121 9.62784 24.8842 9.10227 24.6342 8.64205C24.3842 8.17614 24.0348 7.80966 23.5859 7.54261C23.1428 7.27557 22.6257 7.14205 22.0348 7.14205C21.4041 7.14205 20.8501 7.29545 20.3729 7.60227C19.8956 7.90341 19.5234 8.30114 19.2564 8.79545C18.995 9.28409 18.8615 9.82102 18.8558 10.4062V12.2216C18.8558 12.983 18.995 13.6364 19.2734 14.1818C19.5518 14.7216 19.9411 15.1364 20.4411 15.4261C20.9411 15.7102 21.5263 15.8523 22.1967 15.8523C22.6456 15.8523 23.0518 15.7898 23.4155 15.6648C23.7791 15.5341 24.0945 15.3438 24.3615 15.0938C24.6286 14.8438 24.8303 14.5341 24.9666 14.1648L27.8473 14.4886C27.6655 15.25 27.3189 15.9148 26.8075 16.483C26.3018 17.0455 25.6541 17.483 24.8643 17.7955C24.0746 18.1023 23.1712 18.2557 22.1541 18.2557ZM40.9318 8.36932L38.1193 8.67614C38.0398 8.39205 37.9006 8.125 37.7017 7.875C37.5085 7.625 37.2472 7.4233 36.9176 7.26989C36.5881 7.11648 36.1847 7.03977 35.7074 7.03977C35.0653 7.03977 34.5256 7.17898 34.0881 7.45739C33.6562 7.7358 33.4432 8.09659 33.4489 8.53977C33.4432 8.92045 33.5824 9.23011 33.8665 9.46875C34.1563 9.70739 34.6335 9.90341 35.2983 10.0568L37.5312 10.5341C38.7699 10.8011 39.6903 11.2244 40.2926 11.804C40.9006 12.3835 41.2074 13.142 41.2131 14.0795C41.2074 14.9034 40.9659 15.6307 40.4886 16.2614C40.017 16.8864 39.3608 17.375 38.5199 17.7273C37.679 18.0795 36.7131 18.2557 35.6222 18.2557C34.0199 18.2557 32.7301 17.9205 31.7528 17.25C30.7756 16.5739 30.1932 15.6335 30.0057 14.429L33.0142 14.1392C33.1506 14.7301 33.4403 15.1761 33.8835 15.4773C34.3267 15.7784 34.9034 15.929 35.6136 15.929C36.3466 15.929 36.9347 15.7784 37.3778 15.4773C37.8267 15.1761 38.0511 14.804 38.0511 14.3608C38.0511 13.9858 37.9063 13.6761 37.6165 13.4318C37.3324 13.1875 36.8892 13 36.2869 12.8693L34.054 12.4006C32.7983 12.1392 31.8693 11.6989 31.267 11.0795C30.6648 10.4545 30.3665 9.66477 30.3722 8.71023C30.3665 7.90341 30.5852 7.20455 31.0284 6.61364C31.4773 6.01705 32.0994 5.55682 32.8949 5.23295C33.696 4.90341 34.6193 4.73864 35.6648 4.73864C37.1989 4.73864 38.4063 5.06534 39.2869 5.71875C40.1733 6.37216 40.7216 7.25568 40.9318 8.36932ZM50.294 4.90909V7.29545H42.7685V4.90909H50.294ZM44.6264 1.77273H47.7116V14.0625C47.7116 14.4773 47.7741 14.7955 47.8991 15.017C48.0298 15.233 48.2003 15.3807 48.4105 15.4602C48.6207 15.5398 48.8537 15.5795 49.1094 15.5795C49.3026 15.5795 49.4787 15.5653 49.6378 15.5369C49.8026 15.5085 49.9276 15.483 50.0128 15.4602L50.5327 17.8722C50.3679 17.929 50.1321 17.9915 49.8253 18.0597C49.5241 18.1278 49.1548 18.1676 48.7173 18.179C47.9446 18.2017 47.2486 18.0852 46.6293 17.8295C46.0099 17.5682 45.5185 17.1648 45.1548 16.6193C44.7969 16.0739 44.6207 15.392 44.6264 14.5739V1.77273ZM53.2919 18V0.545454H59.9737C61.2351 0.545454 62.2834 0.744318 63.1186 1.14204C63.9595 1.53409 64.5874 2.07102 65.0021 2.75284C65.4226 3.43466 65.6328 4.20739 65.6328 5.07102C65.6328 5.78125 65.4964 6.3892 65.2237 6.89489C64.951 7.39489 64.5845 7.80114 64.1243 8.11364C63.6641 8.42614 63.1499 8.65057 62.5817 8.78693V8.95739C63.201 8.99148 63.7947 9.18182 64.3629 9.52841C64.9368 9.86932 65.4055 10.3523 65.7692 10.9773C66.1328 11.6023 66.3146 12.358 66.3146 13.2443C66.3146 14.1477 66.0959 14.9602 65.6584 15.6818C65.2209 16.3977 64.5618 16.9631 63.6811 17.3778C62.8004 17.7926 61.6925 18 60.3572 18H53.2919ZM56.4538 15.358H59.8544C61.0021 15.358 61.8288 15.1392 62.3345 14.7017C62.8459 14.2585 63.1016 13.6903 63.1016 12.9972C63.1016 12.4801 62.9737 12.0142 62.718 11.5994C62.4624 11.179 62.0987 10.8494 61.6271 10.6108C61.1555 10.3665 60.593 10.2443 59.9396 10.2443H56.4538V15.358ZM56.4538 7.96875H59.5817C60.1271 7.96875 60.6186 7.86932 61.0561 7.67045C61.4936 7.46591 61.8374 7.17898 62.0874 6.80966C62.343 6.43466 62.4709 5.99148 62.4709 5.48011C62.4709 4.80398 62.2322 4.24716 61.755 3.80966C61.2834 3.37216 60.5817 3.15341 59.6499 3.15341H56.4538V7.96875ZM77.2727 12.4943V4.90909H80.358V18H77.3665V15.6733H77.2301C76.9347 16.4062 76.4489 17.0057 75.7727 17.4716C75.1023 17.9375 74.2756 18.1705 73.2926 18.1705C72.4347 18.1705 71.6761 17.9801 71.017 17.5994C70.3636 17.2131 69.8523 16.6534 69.483 15.9205C69.1136 15.1818 68.929 14.2898 68.929 13.2443V4.90909H72.0142V12.767C72.0142 13.5966 72.2415 14.2557 72.696 14.7443C73.1506 15.233 73.7472 15.4773 74.4858 15.4773C74.9403 15.4773 75.3807 15.3665 75.8068 15.1449C76.233 14.9233 76.5824 14.5938 76.8551 14.1562C77.1335 13.7131 77.2727 13.1591 77.2727 12.4943ZM85.4482 22.9091C85.0277 22.9091 84.6385 22.875 84.2805 22.8068C83.9283 22.7443 83.647 22.6705 83.4368 22.5852L84.1527 20.1818C84.6016 20.3125 85.0021 20.375 85.3544 20.3693C85.7067 20.3636 86.0163 20.2528 86.2834 20.0369C86.5561 19.8267 86.7862 19.4744 86.9737 18.9801L87.2379 18.2727L82.4908 4.90909H85.7635L88.7805 14.7955H88.9169L91.9425 4.90909H95.2237L89.9822 19.5852C89.7379 20.2784 89.4141 20.8722 89.0107 21.3665C88.6072 21.8665 88.1129 22.2472 87.5277 22.5085C86.9482 22.7756 86.255 22.9091 85.4482 22.9091Z" fill="#00C48C"/>
</svg>
